<mxfile host="Electron" agent="Mozilla/5.0 (Windows NT 10.0; Win64; x64) AppleWebKit/537.36 (KHTML, like Gecko) draw.io/26.1.1 Chrome/132.0.6834.210 Electron/34.3.3 Safari/537.36" version="26.1.1">
  <diagram name="Page-1" id="FQ3hIewgCVKovxy99PGp">
    <mxGraphModel dx="2074" dy="1196" grid="1" gridSize="10" guides="1" tooltips="1" connect="1" arrows="1" fold="1" page="1" pageScale="1" pageWidth="1169" pageHeight="827" math="0" shadow="0">
      <root>
        <mxCell id="0" />
        <mxCell id="1" parent="0" />
        <mxCell id="_6KhYJZdv8b-QG0ljDf1-16" value="" style="html=1;outlineConnect=0;whiteSpace=wrap;shape=mxgraph.archimate3.application;appType=grouping;archiType=square;dashed=1;fillColor=#D2D7D7;rounded=1;strokeColor=#000000;align=center;verticalAlign=top;spacingLeft=5;spacingRight=5;fontFamily=Helvetica;fontSize=12;" parent="1" vertex="1">
          <mxGeometry x="40" y="40" width="1340" height="470" as="geometry" />
        </mxCell>
        <mxCell id="_6KhYJZdv8b-QG0ljDf1-10" style="edgeStyle=orthogonalEdgeStyle;rounded=0;orthogonalLoop=1;jettySize=auto;html=1;fontFamily=Helvetica;fontSize=12;fontColor=default;exitX=0.25;exitY=1;exitDx=0;exitDy=0;endArrow=none;startFill=0;entryX=0.75;entryY=0;entryDx=0;entryDy=0;" parent="1" source="_6KhYJZdv8b-QG0ljDf1-1" target="_6KhYJZdv8b-QG0ljDf1-8" edge="1">
          <mxGeometry relative="1" as="geometry">
            <mxPoint x="500" y="60" as="targetPoint" />
            <Array as="points">
              <mxPoint x="910" y="300" />
              <mxPoint x="740" y="300" />
            </Array>
          </mxGeometry>
        </mxCell>
        <mxCell id="_6KhYJZdv8b-QG0ljDf1-15" style="edgeStyle=orthogonalEdgeStyle;rounded=0;orthogonalLoop=1;jettySize=auto;html=1;fontFamily=Helvetica;fontSize=12;fontColor=default;endArrow=none;startFill=0;entryX=0.5;entryY=0;entryDx=0;entryDy=0;exitX=0.5;exitY=1;exitDx=0;exitDy=0;" parent="1" source="_6KhYJZdv8b-QG0ljDf1-1" target="_6KhYJZdv8b-QG0ljDf1-14" edge="1">
          <mxGeometry relative="1" as="geometry">
            <Array as="points">
              <mxPoint x="960" y="390" />
              <mxPoint x="960" y="390" />
            </Array>
          </mxGeometry>
        </mxCell>
        <mxCell id="YwlZLNZ5m-19csx6hS7T-19" value="" style="edgeStyle=orthogonalEdgeStyle;rounded=0;orthogonalLoop=1;jettySize=auto;html=1;" parent="1" source="_6KhYJZdv8b-QG0ljDf1-1" target="_6KhYJZdv8b-QG0ljDf1-2" edge="1">
          <mxGeometry relative="1" as="geometry" />
        </mxCell>
        <mxCell id="_6KhYJZdv8b-QG0ljDf1-1" value="&lt;font style=&quot;font-size: 16px;&quot;&gt;&lt;b&gt;Katalóg agiend&lt;/b&gt;&lt;/font&gt;&lt;div style=&quot;text-align: left;&quot;&gt;&lt;span style=&quot;font-family: Aptos, sans-serif;&quot; lang=&quot;CS&quot;&gt;&lt;font&gt;&lt;br&gt;&lt;/font&gt;&lt;/span&gt;&lt;/div&gt;&lt;div style=&quot;text-align: left;&quot;&gt;&lt;span style=&quot;font-family: Aptos, sans-serif;&quot; lang=&quot;CS&quot;&gt;&lt;font&gt;Obsahuje popis všech agend, které veřejná správa zajišťuje, a to na základě zákonů a prováděcích předpisů. Agendy jsou dále dekomponovány na jednotlivé činnosti a úkony na základě kterých je agenda vykonávána&lt;/font&gt;&lt;/span&gt;&lt;/div&gt;" style="rounded=1;whiteSpace=wrap;html=1;spacingLeft=5;spacingRight=5;verticalAlign=top;" parent="1" vertex="1">
          <mxGeometry x="850" y="80" width="240" height="200" as="geometry" />
        </mxCell>
        <mxCell id="_6KhYJZdv8b-QG0ljDf1-2" value="&lt;font style=&quot;font-size: 16px;&quot;&gt;&lt;b&gt;Katalóg služieb&lt;/b&gt;&lt;/font&gt;&lt;div style=&quot;text-align: left;&quot;&gt;&lt;span style=&quot;font-family: Aptos, sans-serif;&quot; lang=&quot;CS&quot;&gt;&lt;font&gt;&lt;br&gt;&lt;/font&gt;&lt;/span&gt;&lt;/div&gt;&lt;div style=&quot;text-align: left;&quot;&gt;&lt;span style=&quot;font-family: Aptos, sans-serif;&quot; lang=&quot;CS&quot;&gt;&lt;font&gt;&lt;span style=&quot;background-color: transparent; color: light-dark(rgb(0, 0, 0), rgb(255, 255, 255)); text-align: center;&quot;&gt;&lt;font&gt;navazuje na agendy a&amp;nbsp;&lt;/font&gt;&lt;/span&gt;identifikuje služby, které klienti veřejné správy konzumují: komunikační kanály, formulář nebo link na samoobslužný portál.&amp;nbsp;&lt;/font&gt;&lt;/span&gt;&lt;/div&gt;&lt;div style=&quot;text-align: left;&quot;&gt;&lt;span style=&quot;font-family: Aptos, sans-serif;&quot; lang=&quot;CS&quot;&gt;&lt;font&gt;Součástí tohoto ekosystému je rovněž katalog životních situací a událostí.&lt;/font&gt;&lt;/span&gt;&lt;/div&gt;" style="rounded=1;whiteSpace=wrap;html=1;spacingLeft=5;spacingRight=5;verticalAlign=top;" parent="1" vertex="1">
          <mxGeometry x="1120" y="80" width="240" height="200" as="geometry" />
        </mxCell>
        <mxCell id="_6KhYJZdv8b-QG0ljDf1-5" style="edgeStyle=orthogonalEdgeStyle;rounded=0;orthogonalLoop=1;jettySize=auto;html=1;fontFamily=Helvetica;fontSize=12;fontColor=default;verticalAlign=top;" parent="1" source="_6KhYJZdv8b-QG0ljDf1-3" target="_6KhYJZdv8b-QG0ljDf1-4" edge="1">
          <mxGeometry relative="1" as="geometry">
            <Array as="points">
              <mxPoint x="540" y="180" />
              <mxPoint x="540" y="180" />
            </Array>
          </mxGeometry>
        </mxCell>
        <mxCell id="_6KhYJZdv8b-QG0ljDf1-9" style="edgeStyle=orthogonalEdgeStyle;rounded=0;orthogonalLoop=1;jettySize=auto;html=1;fontFamily=Helvetica;fontSize=12;fontColor=default;endArrow=none;startFill=0;" parent="1" source="_6KhYJZdv8b-QG0ljDf1-3" target="_6KhYJZdv8b-QG0ljDf1-8" edge="1">
          <mxGeometry relative="1" as="geometry">
            <Array as="points">
              <mxPoint x="680" y="360" />
              <mxPoint x="680" y="360" />
            </Array>
          </mxGeometry>
        </mxCell>
        <mxCell id="_6KhYJZdv8b-QG0ljDf1-3" value="&lt;font style=&quot;font-size: 16px;&quot;&gt;&lt;b&gt;&lt;span style=&quot;font-size:12.0pt;font-family:&lt;br/&gt;&amp;quot;Aptos&amp;quot;,sans-serif;mso-ascii-theme-font:minor-latin;mso-fareast-font-family:&lt;br/&gt;Aptos;mso-fareast-theme-font:minor-latin;mso-hansi-theme-font:minor-latin;&lt;br/&gt;mso-bidi-font-family:&amp;quot;Times New Roman&amp;quot;;mso-bidi-theme-font:minor-bidi;&lt;br/&gt;mso-ansi-language:CS;mso-fareast-language:EN-US;mso-bidi-language:AR-SA&quot; lang=&quot;CS&quot;&gt;Rejstřík&lt;br&gt;orgánů veřejné moci&lt;/span&gt;&lt;/b&gt;&lt;/font&gt;&lt;div style=&quot;text-align: left;&quot;&gt;&lt;span style=&quot;font-family: Aptos, sans-serif;&quot; lang=&quot;CS&quot;&gt;&lt;font&gt;&lt;br&gt;&lt;/font&gt;&lt;/span&gt;&lt;/div&gt;&lt;div style=&quot;text-align: left;&quot;&gt;&lt;span style=&quot;font-family: Aptos, sans-serif;&quot; lang=&quot;CS&quot;&gt;&lt;font&gt;samostatný katalogem, kde jsou evidovány všechny orgány, které vykonávají definovanou působnost, tedy zajišťují vlastní realizaci agendy. Orgány jsou zároveň rozřazeny do skupin tak, aby jim bylo možné lépe přiřazovat typovou kompetenci.&lt;/font&gt;&lt;/span&gt;&lt;/div&gt;" style="rounded=1;whiteSpace=wrap;html=1;spacingLeft=5;spacingRight=5;verticalAlign=top;" parent="1" vertex="1">
          <mxGeometry x="560" y="80" width="240" height="200" as="geometry" />
        </mxCell>
        <mxCell id="_6KhYJZdv8b-QG0ljDf1-6" style="edgeStyle=orthogonalEdgeStyle;rounded=0;orthogonalLoop=1;jettySize=auto;html=1;fontFamily=Helvetica;fontSize=12;fontColor=default;verticalAlign=top;" parent="1" source="_6KhYJZdv8b-QG0ljDf1-4" target="_6KhYJZdv8b-QG0ljDf1-1" edge="1">
          <mxGeometry relative="1" as="geometry">
            <Array as="points">
              <mxPoint x="380" y="60" />
              <mxPoint x="970" y="60" />
            </Array>
          </mxGeometry>
        </mxCell>
        <mxCell id="_6KhYJZdv8b-QG0ljDf1-4" value="&lt;b&gt;&lt;span style=&quot;font-size:12.0pt;font-family:&lt;br/&gt;&amp;quot;Aptos&amp;quot;,sans-serif;mso-ascii-theme-font:minor-latin;mso-fareast-font-family:&lt;br/&gt;Aptos;mso-fareast-theme-font:minor-latin;mso-hansi-theme-font:minor-latin;&lt;br/&gt;mso-bidi-font-family:&amp;quot;Times New Roman&amp;quot;;mso-bidi-theme-font:minor-bidi;&lt;br/&gt;mso-ansi-language:CS;mso-fareast-language:EN-US;mso-bidi-language:AR-SA&quot; lang=&quot;CS&quot;&gt;Kompetenční&lt;br&gt;model&lt;/span&gt;&lt;/b&gt;&lt;span style=&quot;font-size:12.0pt;font-family:&amp;quot;Aptos&amp;quot;,sans-serif;&lt;br/&gt;mso-ascii-theme-font:minor-latin;mso-fareast-font-family:Aptos;mso-fareast-theme-font:&lt;br/&gt;minor-latin;mso-hansi-theme-font:minor-latin;mso-bidi-font-family:&amp;quot;Times New Roman&amp;quot;;&lt;br/&gt;mso-bidi-theme-font:minor-bidi;mso-ansi-language:CS;mso-fareast-language:EN-US;&lt;br/&gt;mso-bidi-language:AR-SA&quot; lang=&quot;CS&quot;&gt;&lt;/span&gt;&lt;br&gt;&lt;div style=&quot;text-align: left;&quot;&gt;&lt;span style=&quot;font-family: Aptos, sans-serif;&quot; lang=&quot;CS&quot;&gt;&lt;font&gt;&lt;br&gt;&lt;/font&gt;&lt;/span&gt;&lt;/div&gt;&lt;div style=&quot;text-align: left;&quot;&gt;&lt;span style=&quot;font-family: Aptos, sans-serif;&quot; lang=&quot;CS&quot;&gt;&lt;font&gt;je vytvářen propojením orgánů veřejné moci s&amp;nbsp;vykonáváním agend, které se děje na základě legislativního ukotvení.&amp;nbsp;&lt;/font&gt;&lt;/span&gt;&lt;span style=&quot;background-color: transparent; color: light-dark(rgb(0, 0, 0), rgb(255, 255, 255)); font-family: Aptos, sans-serif;&quot;&gt;Gestor&amp;nbsp;&lt;/span&gt;&lt;span style=&quot;background-color: transparent; color: light-dark(rgb(0, 0, 0), rgb(255, 255, 255)); font-family: Aptos, sans-serif;&quot;&gt;agendy v&amp;nbsp;rámci své registrace agendy určí kdo danou agendu může vykonávat,&amp;nbsp;&lt;/span&gt;&lt;span style=&quot;background-color: transparent; color: light-dark(rgb(0, 0, 0), rgb(255, 255, 255)); font-family: Aptos, sans-serif;&quot;&gt;následně se jednotlivé orgány veřejné moci, příp. soukromé organizace, které&amp;nbsp;&lt;/span&gt;&lt;span style=&quot;background-color: transparent; color: light-dark(rgb(0, 0, 0), rgb(255, 255, 255)); font-family: Aptos, sans-serif;&quot;&gt;mohou agendu vykonávat, přihlásí ke své působnosti.&amp;nbsp;&lt;/span&gt;&lt;/div&gt;&lt;div style=&quot;&quot;&gt;&lt;div style=&quot;text-align: left;&quot;&gt;&lt;span style=&quot;font-family: Aptos, sans-serif; background-color: transparent; color: light-dark(rgb(0, 0, 0), rgb(255, 255, 255));&quot;&gt;Vzniká tak klíčová komponenta celého ekosystému, tzv. &lt;/span&gt;&lt;b style=&quot;font-family: Aptos, sans-serif; background-color: transparent; color: light-dark(rgb(0, 0, 0), rgb(255, 255, 255));&quot;&gt;matice&amp;nbsp;&lt;/b&gt;&lt;b style=&quot;font-family: Aptos, sans-serif; background-color: transparent; color: light-dark(rgb(0, 0, 0), rgb(255, 255, 255));&quot;&gt;oprávnění&lt;/b&gt;&lt;span style=&quot;font-family: Aptos, sans-serif; background-color: transparent; color: light-dark(rgb(0, 0, 0), rgb(255, 255, 255));&quot;&gt;, která definuje nejen kdo co může vykonávat, ale také k&amp;nbsp;jakým&amp;nbsp;&lt;/span&gt;&lt;span style=&quot;font-family: Aptos, sans-serif; background-color: transparent; color: light-dark(rgb(0, 0, 0), rgb(255, 255, 255));&quot;&gt;datům v&amp;nbsp;rámci propojeného datového fondu může přistupovat a&amp;nbsp;&lt;/span&gt;&lt;span style=&quot;font-family: Aptos, sans-serif; background-color: transparent; color: light-dark(rgb(0, 0, 0), rgb(255, 255, 255));&quot;&gt;prostřednictvím kterých informačních systémů se tak může dít.&lt;/span&gt;&lt;/div&gt;&lt;/div&gt;" style="rounded=1;whiteSpace=wrap;html=1;spacingLeft=5;spacingRight=5;verticalAlign=top;" parent="1" vertex="1">
          <mxGeometry x="60" y="80" width="460" height="200" as="geometry" />
        </mxCell>
        <mxCell id="_6KhYJZdv8b-QG0ljDf1-12" value="" style="edgeStyle=orthogonalEdgeStyle;rounded=0;orthogonalLoop=1;jettySize=auto;html=1;fontFamily=Helvetica;fontSize=12;fontColor=default;" parent="1" source="_6KhYJZdv8b-QG0ljDf1-8" target="_6KhYJZdv8b-QG0ljDf1-11" edge="1">
          <mxGeometry relative="1" as="geometry">
            <Array as="points">
              <mxPoint x="680" y="490" />
              <mxPoint x="1240" y="490" />
            </Array>
          </mxGeometry>
        </mxCell>
        <mxCell id="_6KhYJZdv8b-QG0ljDf1-8" value="&lt;font style=&quot;font-size: 16px;&quot;&gt;&lt;b&gt;&lt;span style=&quot;font-size:12.0pt;font-family:&lt;br/&gt;&amp;quot;Aptos&amp;quot;,sans-serif;mso-ascii-theme-font:minor-latin;mso-fareast-font-family:&lt;br/&gt;Aptos;mso-fareast-theme-font:minor-latin;mso-hansi-theme-font:minor-latin;&lt;br/&gt;mso-bidi-font-family:&amp;quot;Times New Roman&amp;quot;;mso-bidi-theme-font:minor-bidi;&lt;br/&gt;mso-ansi-language:CS;mso-fareast-language:EN-US;mso-bidi-language:AR-SA&quot; lang=&quot;CS&quot;&gt;Rejstřík ISVS&lt;/span&gt;&lt;/b&gt;&lt;/font&gt;&lt;div style=&quot;text-align: left;&quot;&gt;&lt;span style=&quot;font-family: Aptos, sans-serif;&quot; lang=&quot;CS&quot;&gt;&lt;font&gt;&lt;br&gt;&lt;/font&gt;&lt;/span&gt;&lt;/div&gt;&lt;div style=&quot;text-align: left;&quot;&gt;&lt;span style=&quot;font-family: Aptos, sans-serif;&quot; lang=&quot;CS&quot;&gt;&lt;font&gt;Rejstřík definuje, které ISVS orgán veřejné moci užívá na podporu výkonu svých agend, z&amp;nbsp;jakých modulů se systém skládá, jaké jsou provozní parametry systémů a jaké jsou jejich ekonomické parametry.&lt;/font&gt;&lt;/span&gt;&lt;/div&gt;" style="rounded=1;whiteSpace=wrap;html=1;spacingLeft=5;spacingRight=5;verticalAlign=top;" parent="1" vertex="1">
          <mxGeometry x="560" y="320" width="240" height="150" as="geometry" />
        </mxCell>
        <mxCell id="_6KhYJZdv8b-QG0ljDf1-11" value="&lt;font style=&quot;font-size: 16px;&quot;&gt;&lt;b&gt;&lt;span style=&quot;font-size:12.0pt;font-family:&lt;br/&gt;&amp;quot;Aptos&amp;quot;,sans-serif;mso-ascii-theme-font:minor-latin;mso-fareast-font-family:&lt;br/&gt;Aptos;mso-fareast-theme-font:minor-latin;mso-hansi-theme-font:minor-latin;&lt;br/&gt;mso-bidi-font-family:&amp;quot;Times New Roman&amp;quot;;mso-bidi-theme-font:minor-bidi;&lt;br/&gt;mso-ansi-language:CS;mso-fareast-language:EN-US;mso-bidi-language:AR-SA&quot; lang=&quot;CS&quot;&gt;Architektúra&lt;/span&gt;&lt;/b&gt;&lt;/font&gt;&lt;div style=&quot;text-align: left;&quot;&gt;&lt;span style=&quot;font-family: Aptos, sans-serif;&quot; lang=&quot;CS&quot;&gt;&lt;font&gt;&lt;br&gt;&lt;/font&gt;&lt;/span&gt;&lt;/div&gt;&lt;div style=&quot;text-align: left;&quot;&gt;&lt;span style=&quot;font-family: Aptos, sans-serif;&quot; lang=&quot;CS&quot;&gt;&lt;font&gt;Architektonické popisy jednotlivých systémů. Zároveň tato oblast obsahuje tzv. referenční vzory, které slouží jako návod k&amp;nbsp;popisům konkrétních modelů.&lt;/font&gt;&lt;/span&gt;&lt;/div&gt;" style="rounded=1;whiteSpace=wrap;html=1;spacingLeft=5;spacingRight=5;verticalAlign=top;" parent="1" vertex="1">
          <mxGeometry x="1120" y="320" width="240" height="150" as="geometry" />
        </mxCell>
        <mxCell id="_6KhYJZdv8b-QG0ljDf1-13" value="&lt;font style=&quot;font-size: 16px;&quot;&gt;&lt;b&gt;&lt;span style=&quot;font-size:12.0pt;font-family:&lt;br/&gt;&amp;quot;Aptos&amp;quot;,sans-serif;mso-ascii-theme-font:minor-latin;mso-fareast-font-family:&lt;br/&gt;Aptos;mso-fareast-theme-font:minor-latin;mso-hansi-theme-font:minor-latin;&lt;br/&gt;mso-bidi-font-family:&amp;quot;Times New Roman&amp;quot;;mso-bidi-theme-font:minor-bidi;&lt;br/&gt;mso-ansi-language:CS;mso-fareast-language:EN-US;mso-bidi-language:AR-SA&quot; lang=&quot;CS&quot;&gt;Práva a povinností fyzických a právnických osob&lt;/span&gt;&lt;/b&gt;&lt;/font&gt;&lt;div style=&quot;text-align: left;&quot;&gt;&lt;span style=&quot;font-family: Aptos, sans-serif;&quot; lang=&quot;CS&quot;&gt;&lt;font&gt;&lt;br&gt;&lt;/font&gt;&lt;/span&gt;&lt;/div&gt;&lt;div style=&quot;text-align: left;&quot;&gt;&lt;span style=&quot;font-family: Aptos, sans-serif;&quot; lang=&quot;CS&quot;&gt;&lt;font&gt;obsahuje rozhodnutí na základě kterých se mění referenční údaje v&amp;nbsp;základních&lt;br&gt;registrech a dále údaje, které klient veřejné správy určí jako zásadní pro&lt;br&gt;prokazování nějaké právní skutečnosti. Tento nástroj je využíván zejména&lt;br&gt;v&amp;nbsp;případech, kdy konkrétní agendy nemají realizované služby pro jejich vystavení a umožňuje tak klientovi na základě vlastního rozhodnutí tyto skutečnosti ukládat jako referenční a zpřístupňovat je na základě své preference.&lt;/font&gt;&lt;/span&gt;&lt;/div&gt;" style="rounded=1;whiteSpace=wrap;html=1;spacingLeft=5;spacingRight=5;verticalAlign=top;" parent="1" vertex="1">
          <mxGeometry x="60" y="320" width="460" height="150" as="geometry" />
        </mxCell>
        <mxCell id="_6KhYJZdv8b-QG0ljDf1-14" value="&lt;font style=&quot;font-size: 16px;&quot;&gt;&lt;b&gt;&lt;span style=&quot;font-size:12.0pt;font-family:&lt;br/&gt;&amp;quot;Aptos&amp;quot;,sans-serif;mso-ascii-theme-font:minor-latin;mso-fareast-font-family:&lt;br/&gt;Aptos;mso-fareast-theme-font:minor-latin;mso-hansi-theme-font:minor-latin;&lt;br/&gt;mso-bidi-font-family:&amp;quot;Times New Roman&amp;quot;;mso-bidi-theme-font:minor-bidi;&lt;br/&gt;mso-ansi-language:CS;mso-fareast-language:EN-US;mso-bidi-language:AR-SA&quot; lang=&quot;CS&quot;&gt;Dátové prvky&lt;/span&gt;&lt;/b&gt;&lt;/font&gt;&lt;div&gt;&lt;span style=&quot;font-size: 16px;&quot;&gt;Dátový fond&lt;br&gt;&lt;/span&gt;&lt;div style=&quot;text-align: left;&quot;&gt;&lt;span style=&quot;font-family: Aptos, sans-serif;&quot; lang=&quot;CS&quot;&gt;&lt;font&gt;&lt;br&gt;&lt;/font&gt;&lt;/span&gt;&lt;/div&gt;&lt;div style=&quot;text-align: left;&quot;&gt;&lt;span style=&quot;font-family: Aptos, sans-serif;&quot; lang=&quot;CS&quot;&gt;&lt;font&gt;Navazuje na popis jednotlivých agend, kde rozšiřuje tento popis o technickou strukturu údajů, které v&amp;nbsp;rámci agendy vznikají, čímž vzniká celkový datový model&lt;br&gt;veřejné správy.&lt;/font&gt;&lt;/span&gt;&lt;/div&gt;&lt;/div&gt;" style="rounded=1;whiteSpace=wrap;html=1;spacingLeft=5;spacingRight=5;verticalAlign=top;" parent="1" vertex="1">
          <mxGeometry x="840" y="320" width="240" height="150" as="geometry" />
        </mxCell>
        <mxCell id="YwlZLNZ5m-19csx6hS7T-11" value="Kdo čo vykonáva&lt;div&gt;Kdo má na čo právo&lt;/div&gt;" style="edgeStyle=orthogonalEdgeStyle;rounded=0;orthogonalLoop=1;jettySize=auto;html=1;endArrow=none;startFill=0;" parent="1" source="YwlZLNZ5m-19csx6hS7T-1" target="YwlZLNZ5m-19csx6hS7T-3" edge="1">
          <mxGeometry relative="1" as="geometry" />
        </mxCell>
        <mxCell id="YwlZLNZ5m-19csx6hS7T-1" value="Matica oprávnení pre prístup k údajom" style="html=1;outlineConnect=0;whiteSpace=wrap;fillColor=#ffff99;shape=mxgraph.archimate3.application;appType=passive;archiType=square;" parent="1" vertex="1">
          <mxGeometry x="760" y="2420" width="120" height="60" as="geometry" />
        </mxCell>
        <mxCell id="YwlZLNZ5m-19csx6hS7T-2" value="&lt;b&gt;&lt;font style=&quot;font-size: 16px;&quot;&gt;Agenda&lt;/font&gt;&lt;/b&gt;&lt;div&gt;&lt;br&gt;&lt;/div&gt;&lt;div style=&quot;text-align: left;&quot;&gt;&lt;span style=&quot;line-height: 107%; font-family: Calibri, sans-serif; color: rgb(51, 51, 51);&quot; lang=&quot;CS&quot;&gt;&lt;font&gt;Agenda je soubor činností definovaných zákonem, či zákony (příklad je agenda občanských průkazů, státní sociální podpory, evidence řidičů apod.)&lt;/font&gt;&lt;/span&gt;&lt;/div&gt;" style="html=1;outlineConnect=0;whiteSpace=wrap;fillColor=#FFF323;shape=mxgraph.archimate3.application;appType=passive;archiType=square;verticalAlign=top;" parent="1" vertex="1">
          <mxGeometry x="40" y="600" width="730" height="70" as="geometry" />
        </mxCell>
        <mxCell id="YwlZLNZ5m-19csx6hS7T-3" value="Činnosti, úkony,&amp;nbsp;" style="html=1;outlineConnect=0;whiteSpace=wrap;fillColor=#ffff99;shape=mxgraph.archimate3.application;appType=passive;archiType=square;" parent="1" vertex="1">
          <mxGeometry x="1060" y="2420" width="120" height="60" as="geometry" />
        </mxCell>
        <mxCell id="YwlZLNZ5m-19csx6hS7T-4" value="Kompetencie" style="html=1;outlineConnect=0;whiteSpace=wrap;fillColor=#ffff99;shape=mxgraph.archimate3.application;appType=passive;archiType=square;" parent="1" vertex="1">
          <mxGeometry x="760" y="2350" width="120" height="60" as="geometry" />
        </mxCell>
        <mxCell id="YwlZLNZ5m-19csx6hS7T-5" value="Služby" style="html=1;outlineConnect=0;whiteSpace=wrap;fillColor=#ffff99;shape=mxgraph.archimate3.application;appType=passive;archiType=square;" parent="1" vertex="1">
          <mxGeometry x="1340" y="2430" width="120" height="60" as="geometry" />
        </mxCell>
        <mxCell id="YwlZLNZ5m-19csx6hS7T-6" value="Architektúra" style="html=1;outlineConnect=0;whiteSpace=wrap;fillColor=#ffff99;shape=mxgraph.archimate3.application;appType=passive;archiType=square;" parent="1" vertex="1">
          <mxGeometry x="820" y="2240" width="120" height="60" as="geometry" />
        </mxCell>
        <mxCell id="YwlZLNZ5m-19csx6hS7T-7" value="Informačné systémy" style="html=1;outlineConnect=0;whiteSpace=wrap;fillColor=#ffff99;shape=mxgraph.archimate3.application;appType=passive;archiType=square;" parent="1" vertex="1">
          <mxGeometry x="490" y="2280" width="120" height="60" as="geometry" />
        </mxCell>
        <mxCell id="YwlZLNZ5m-19csx6hS7T-8" value="Dátové prvky" style="html=1;outlineConnect=0;whiteSpace=wrap;fillColor=#ffff99;shape=mxgraph.archimate3.application;appType=passive;archiType=square;" parent="1" vertex="1">
          <mxGeometry x="1220" y="2250" width="120" height="60" as="geometry" />
        </mxCell>
        <mxCell id="YwlZLNZ5m-19csx6hS7T-15" style="rounded=0;orthogonalLoop=1;jettySize=auto;html=1;endArrow=none;startFill=0;dashed=1;" parent="1" source="YwlZLNZ5m-19csx6hS7T-9" target="YwlZLNZ5m-19csx6hS7T-14" edge="1">
          <mxGeometry relative="1" as="geometry" />
        </mxCell>
        <mxCell id="YwlZLNZ5m-19csx6hS7T-9" value="REZA&lt;div&gt;&lt;span style=&quot;background-color: transparent; color: light-dark(rgb(0, 0, 0), rgb(255, 255, 255));&quot;&gt;Federovaný register zastupovania&lt;/span&gt;&lt;/div&gt;" style="html=1;outlineConnect=0;whiteSpace=wrap;fillColor=#ffff99;shape=mxgraph.archimate3.application;appType=passive;archiType=square;" parent="1" vertex="1">
          <mxGeometry x="1370" y="2260" width="120" height="60" as="geometry" />
        </mxCell>
        <mxCell id="YwlZLNZ5m-19csx6hS7T-10" value="OVM" style="html=1;outlineConnect=0;whiteSpace=wrap;fillColor=#ffff99;shape=mxgraph.archimate3.application;appType=passive;archiType=square;" parent="1" vertex="1">
          <mxGeometry x="460" y="2430" width="120" height="60" as="geometry" />
        </mxCell>
        <mxCell id="YwlZLNZ5m-19csx6hS7T-14" value="&lt;span lang=&quot;CS&quot; style=&quot;font-family: Aptos, sans-serif;&quot;&gt;a) právního předpisu (člen statutárního orgánu právnické osoby, zákonný zástupce, manžel/manželka či registrovaný partner/partnerka),&amp;nbsp;&lt;/span&gt;&lt;div style=&quot;&quot;&gt;&lt;span lang=&quot;CS&quot; style=&quot;font-family: Aptos, sans-serif;&quot;&gt;b) dohody mezi zastupovaným&lt;br&gt;a zástupcem (plná moc, prokura),&amp;nbsp;&lt;/span&gt;&lt;/div&gt;&lt;div style=&quot;&quot;&gt;&lt;span lang=&quot;CS&quot; style=&quot;font-family: Aptos, sans-serif;&quot;&gt;c) rozhodnutí autority (např. opatrovnictví fyzické osoby)&lt;/span&gt;&lt;/div&gt;" style="shape=note;size=20;whiteSpace=wrap;html=1;align=left;" parent="1" vertex="1">
          <mxGeometry x="1560" y="2260" width="200" height="130" as="geometry" />
        </mxCell>
        <mxCell id="YwlZLNZ5m-19csx6hS7T-16" value="&lt;span lang=&quot;CS&quot; style=&quot;font-family: Aptos, sans-serif;&quot;&gt;a) prístup k údajom zo zákona,&amp;nbsp;&lt;/span&gt;&lt;div style=&quot;&quot;&gt;&lt;span lang=&quot;CS&quot; style=&quot;font-family: Aptos, sans-serif;&quot;&gt;b) prístup k údajom na základe súhlasu&lt;/span&gt;&lt;/div&gt;" style="shape=note;size=20;whiteSpace=wrap;html=1;align=left;" parent="1" vertex="1">
          <mxGeometry x="570" y="2350" width="160" height="70" as="geometry" />
        </mxCell>
        <mxCell id="YwlZLNZ5m-19csx6hS7T-17" style="rounded=0;orthogonalLoop=1;jettySize=auto;html=1;endArrow=none;startFill=0;dashed=1;entryX=0;entryY=0.5;entryDx=0;entryDy=0;entryPerimeter=0;" parent="1" source="YwlZLNZ5m-19csx6hS7T-16" target="YwlZLNZ5m-19csx6hS7T-1" edge="1">
          <mxGeometry relative="1" as="geometry">
            <mxPoint x="1491" y="3190.5" as="sourcePoint" />
            <mxPoint x="1561" y="3200.5" as="targetPoint" />
          </mxGeometry>
        </mxCell>
        <mxCell id="YwlZLNZ5m-19csx6hS7T-20" value="&lt;font style=&quot;font-size: 16px;&quot;&gt;&lt;b&gt;AIS&amp;nbsp;&lt;span style=&quot;text-indent: -0.38in; background-color: transparent; color: light-dark(rgb(0, 0, 0), rgb(255, 255, 255)); vertical-align: baseline;&quot;&gt;Působnostní&lt;/span&gt;&lt;/b&gt;&lt;/font&gt;&lt;div&gt;&lt;font style=&quot;font-size: 16px;&quot;&gt;&lt;span style=&quot;font-weight: 700;&quot;&gt;AIS Působnostní - veřejné&lt;/span&gt;&lt;b&gt;&lt;span style=&quot;text-indent: -0.38in; background-color: transparent; color: light-dark(rgb(0, 0, 0), rgb(255, 255, 255)); vertical-align: baseline;&quot;&gt;&lt;/span&gt;&lt;/b&gt;&lt;/font&gt;&lt;/div&gt;" style="html=1;outlineConnect=0;whiteSpace=wrap;fillColor=#66CCFF;shape=mxgraph.archimate3.application;appType=comp;archiType=square;verticalAlign=top;strokeColor=#000000;container=1;" parent="1" vertex="1">
          <mxGeometry x="320" y="1260" width="240" height="170" as="geometry" />
        </mxCell>
        <mxCell id="7mM5IiCMMm5JMCmeW6Y_-54" value="&lt;span style=&quot;text-indent: -36.48px;&quot;&gt;zajišťující funkce pro podporu výkonu a správy agend, působností OVM, evidenci rejstříků OVM/SPUÚ a ISVS a dále podporu funkcí katalogu práv a povinností osob (rozhodnutí OVM&lt;/span&gt;" style="text;strokeColor=none;align=left;fillColor=none;html=1;verticalAlign=top;whiteSpace=wrap;rounded=0;" parent="YwlZLNZ5m-19csx6hS7T-20" vertex="1">
          <mxGeometry y="50" width="240" height="100" as="geometry" />
        </mxCell>
        <mxCell id="YwlZLNZ5m-19csx6hS7T-23" value="&lt;font style=&quot;font-size: 16px;&quot;&gt;&lt;b&gt;AIS&amp;nbsp;&lt;/b&gt;&lt;/font&gt;&lt;span style=&quot;text-indent: -0.38in; background-color: transparent; color: light-dark(rgb(0, 0, 0), rgb(255, 255, 255)); vertical-align: baseline;&quot;&gt;&lt;font style=&quot;font-size: 16px;&quot;&gt;&lt;b&gt;Katalogu služeb&lt;/b&gt;&lt;/font&gt;&lt;/span&gt;&lt;div&gt;&lt;span style=&quot;text-indent: -0.38in; background-color: transparent; color: light-dark(rgb(0, 0, 0), rgb(255, 255, 255)); vertical-align: baseline;&quot;&gt;&lt;br&gt;&lt;/span&gt;&lt;/div&gt;&lt;div style=&quot;text-align: left; text-indent: -36.48px;&quot;&gt;slouží ke sběru údajů o službách&amp;nbsp;&lt;/div&gt;&lt;div style=&quot;text-align: left; text-indent: -36.48px;&quot;&gt;veřejné a informací požadovaných&amp;nbsp;&lt;/div&gt;&lt;div style=&quot;text-align: left; text-indent: -36.48px;&quot;&gt;nařízením EU O jednotné digitální&amp;nbsp;&lt;/div&gt;&lt;div style=&quot;text-align: left; text-indent: -36.48px;&quot;&gt;bráně&lt;/div&gt;" style="html=1;outlineConnect=0;whiteSpace=wrap;fillColor=#66CCFF;shape=mxgraph.archimate3.application;appType=comp;archiType=square;verticalAlign=top;strokeColor=#000000;" parent="1" vertex="1">
          <mxGeometry x="580" y="1470" width="240" height="160" as="geometry" />
        </mxCell>
        <mxCell id="YwlZLNZ5m-19csx6hS7T-24" value="&lt;span style=&quot;font-family: Calibri, sans-serif;&quot; lang=&quot;CS&quot;&gt;&lt;font style=&quot;font-size: 16px;&quot;&gt;&lt;b&gt;&amp;nbsp;Ohlašovatel agendy&lt;/b&gt;&lt;/font&gt;&lt;/span&gt;&lt;div&gt;&lt;span style=&quot;font-size:10.0pt;line-height:&lt;br/&gt;107%;font-family:&amp;quot;Calibri&amp;quot;,sans-serif;mso-ascii-theme-font:minor-latin;&lt;br/&gt;mso-fareast-font-family:Calibri;mso-fareast-theme-font:minor-latin;mso-hansi-theme-font:&lt;br/&gt;minor-latin;mso-bidi-theme-font:minor-latin;mso-ansi-language:CS;mso-fareast-language:&lt;br/&gt;EN-US;mso-bidi-language:AR-SA&quot; lang=&quot;CS&quot;&gt;&lt;br&gt;&lt;/span&gt;&lt;/div&gt;&lt;div style=&quot;text-align: left;&quot;&gt;&lt;span style=&quot;font-size:10.0pt;line-height:&lt;br/&gt;107%;font-family:&amp;quot;Calibri&amp;quot;,sans-serif;mso-ascii-theme-font:minor-latin;&lt;br/&gt;mso-fareast-font-family:Calibri;mso-fareast-theme-font:minor-latin;mso-hansi-theme-font:&lt;br/&gt;minor-latin;mso-bidi-theme-font:minor-latin;mso-ansi-language:CS;mso-fareast-language:&lt;br/&gt;EN-US;mso-bidi-language:AR-SA&quot; lang=&quot;CS&quot;&gt;&lt;span style=&quot;font-size: 10pt; line-height: 107%;&quot; lang=&quot;CS&quot;&gt;OVM, který je zodpovědný za legislativní rámec agendy, a tedy určuje i základní parametry jejího výkonu&lt;/span&gt;&lt;/span&gt;&lt;/div&gt;&lt;div style=&quot;text-align: left;&quot;&gt;&lt;span style=&quot;font-size:10.0pt;line-height:&lt;br/&gt;107%;font-family:&amp;quot;Calibri&amp;quot;,sans-serif;mso-ascii-theme-font:minor-latin;&lt;br/&gt;mso-fareast-font-family:Calibri;mso-fareast-theme-font:minor-latin;mso-hansi-theme-font:&lt;br/&gt;minor-latin;mso-bidi-theme-font:minor-latin;mso-ansi-language:CS;mso-fareast-language:&lt;br/&gt;EN-US;mso-bidi-language:AR-SA&quot; lang=&quot;CS&quot;&gt;&lt;span style=&quot;font-size: 10pt; line-height: 107%;&quot; lang=&quot;CS&quot;&gt;&lt;span style=&quot;font-size: 10.5pt; line-height: 107%; color: rgb(51, 51, 51);&quot; lang=&quot;CS&quot;&gt;* čísla a názvy právních předpisů&amp;nbsp;&lt;/span&gt;&lt;/span&gt;&lt;/span&gt;&lt;/div&gt;&lt;div style=&quot;text-align: left;&quot;&gt;&lt;span style=&quot;background-color: transparent; color: rgb(51, 51, 51); font-family: Calibri, sans-serif; font-size: 10.5pt; text-align: center;&quot;&gt;*&amp;nbsp;&lt;/span&gt;&lt;span style=&quot;background-color: transparent; color: rgb(51, 51, 51); font-family: Calibri, sans-serif; font-size: 10.5pt; text-align: center;&quot;&gt;Definice agendových&amp;nbsp;&lt;/span&gt;&lt;span style=&quot;background-color: transparent; color: rgb(51, 51, 51); font-family: Calibri, sans-serif; font-size: 10.5pt; text-align: center;&quot;&gt;činností a činnostních rolí&lt;/span&gt;&lt;/div&gt;&lt;div style=&quot;text-align: left;&quot;&gt;&lt;span style=&quot;color: rgb(51, 51, 51); font-family: Calibri, sans-serif; font-size: 10.5pt; background-color: transparent; text-align: center;&quot;&gt;*&amp;nbsp;&lt;/span&gt;&lt;span style=&quot;color: rgb(51, 51, 51); font-family: Calibri, sans-serif; font-size: 10.5pt; background-color: transparent; text-align: center;&quot;&gt;Adresy pracovišť OVM, kde jsou vykonávány činnosti agendy&lt;/span&gt;&lt;/div&gt;&lt;div style=&quot;text-align: left;&quot;&gt;&lt;span style=&quot;color: rgb(51, 51, 51); font-family: Calibri, sans-serif; font-size: 10.5pt; background-color: transparent; text-align: center;&quot;&gt;*&amp;nbsp;&lt;/span&gt;&lt;span style=&quot;color: rgb(51, 51, 51); font-family: Calibri, sans-serif; font-size: 10.5pt; background-color: transparent; text-align: center;&quot;&gt;Agendové informační systémy&lt;/span&gt;&lt;/div&gt;&lt;div style=&quot;text-align: left;&quot;&gt;&lt;span style=&quot;color: rgb(51, 51, 51); font-family: Calibri, sans-serif; font-size: 10.5pt; background-color: transparent; text-align: center;&quot;&gt;*&amp;nbsp;&lt;/span&gt;&lt;span style=&quot;color: rgb(51, 51, 51); font-family: Calibri, sans-serif; font-size: 10.5pt; background-color: transparent; text-align: center;&quot;&gt;kdo a které údaje smí z agendy využívat anebo je naopak agendě ze svých AIS poskytuje&amp;nbsp;&lt;/span&gt;&lt;/div&gt;&lt;div style=&quot;text-align: left;&quot;&gt;&lt;span style=&quot;color: rgb(51, 51, 51); font-family: Calibri, sans-serif; font-size: 10.5pt; background-color: transparent;&quot;&gt;* Údaje v agendě: Jsou&amp;nbsp;&lt;/span&gt;&lt;span style=&quot;color: rgb(51, 51, 51); font-family: Calibri, sans-serif; font-size: 10.5pt; background-color: transparent;&quot;&gt;ohlášeny všechny propojované a vedené údaje, včetně jejich kontextů a včetně&amp;nbsp;&lt;/span&gt;&lt;span style=&quot;color: rgb(51, 51, 51); font-family: Calibri, sans-serif; font-size: 10.5pt; background-color: transparent;&quot;&gt;technických údajů o nich&lt;/span&gt;&lt;/div&gt;&lt;div style=&quot;text-align: left;&quot;&gt;&lt;span style=&quot;color: rgb(51, 51, 51); font-family: Calibri, sans-serif; font-size: 10.5pt; background-color: transparent;&quot;&gt;*&amp;nbsp;&lt;/span&gt;&lt;span style=&quot;text-align: justify; text-indent: -18pt; font-size: 10.5pt; font-family: Calibri, sans-serif; color: rgb(51, 51, 51);&quot; lang=&quot;CS&quot;&gt;Úkony na žádost:&lt;br/&gt;Součástí agendy je i seznam a forma úkonů na žádost a určení toho, kdo smí&lt;br/&gt;takovou žádost podat&lt;/span&gt;&lt;/div&gt;&lt;div style=&quot;text-align: left;&quot;&gt;&lt;span style=&quot;text-align: justify; text-indent: -18pt; font-size: 10.5pt; font-family: Calibri, sans-serif; color: rgb(51, 51, 51);&quot; lang=&quot;CS&quot;&gt;&lt;span style=&quot;font-size: 10.5pt; line-height: 107%;&quot; lang=&quot;CS&quot;&gt;* Formuláře: součástí&lt;br/&gt;povinností ohlášení agendy je i předání elektronických formulářů či odkazů na&lt;br/&gt;ně ministerstvu vnitra&lt;/span&gt;&lt;/span&gt;&lt;/div&gt;&lt;p style=&quot;margin-left:36.0pt;text-align:justify;text-indent:-18.0pt;&lt;br/&gt;mso-list:l0 level1 lfo1;tab-stops:list 36.0pt;background:white&quot; class=&quot;level2&quot;&gt;&lt;span style=&quot;font-size:10.5pt;&lt;br/&gt;font-family:&amp;quot;Calibri&amp;quot;,sans-serif;mso-ascii-theme-font:minor-latin;mso-hansi-theme-font:&lt;br/&gt;minor-latin;mso-bidi-theme-font:minor-latin;color:#333333&quot; lang=&quot;CS&quot;&gt;&lt;/span&gt;&lt;/p&gt;" style="html=1;outlineConnect=0;whiteSpace=wrap;fillColor=#FFF323;shape=mxgraph.archimate3.application;appType=actor;archiType=square;verticalAlign=top;strokeColor=#000000;" parent="1" vertex="1">
          <mxGeometry x="40" y="700" width="460" height="330" as="geometry" />
        </mxCell>
        <mxCell id="YwlZLNZ5m-19csx6hS7T-26" value="&lt;span style=&quot;line-height: 107%; font-family: Calibri, sans-serif;&quot; lang=&quot;CS&quot;&gt;&lt;b style=&quot;&quot;&gt;&lt;font style=&quot;font-size: 16px;&quot;&gt;Orgán veřejné moci působící v&amp;nbsp;agendě&lt;/font&gt;&lt;/b&gt;&lt;/span&gt;&lt;div&gt;&lt;span style=&quot;font-size:10.0pt;line-height:&lt;br/&gt;107%;font-family:&amp;quot;Calibri&amp;quot;,sans-serif;mso-ascii-theme-font:minor-latin;&lt;br/&gt;mso-fareast-font-family:Calibri;mso-fareast-theme-font:minor-latin;mso-hansi-theme-font:&lt;br/&gt;minor-latin;mso-bidi-theme-font:minor-latin;mso-ansi-language:CS;mso-fareast-language:&lt;br/&gt;EN-US;mso-bidi-language:AR-SA&quot; lang=&quot;CS&quot;&gt;&lt;br&gt;&lt;/span&gt;&lt;/div&gt;&lt;div&gt;&lt;div style=&quot;text-align: left;&quot;&gt;&lt;span style=&quot;font-size: 10pt; font-family: Calibri, sans-serif; background-color: transparent; color: light-dark(rgb(0, 0, 0), rgb(255, 255, 255));&quot;&gt;vykonává fakticky nějakou činnost v rámci dané&amp;nbsp;&lt;/span&gt;&lt;span style=&quot;background-color: transparent; color: light-dark(rgb(0, 0, 0), rgb(255, 255, 255)); font-size: 10pt; font-family: Calibri, sans-serif;&quot;&gt;agendy a k tomu využívá buď centrálně poskytnutý AIS, nebo svůj vlastní&lt;/span&gt;&lt;/div&gt;&lt;/div&gt;" style="html=1;outlineConnect=0;whiteSpace=wrap;fillColor=#FFF323;shape=mxgraph.archimate3.application;appType=actor;archiType=square;verticalAlign=top;" parent="1" vertex="1">
          <mxGeometry x="530" y="700" width="240" height="120" as="geometry" />
        </mxCell>
        <mxCell id="YwlZLNZ5m-19csx6hS7T-27" value="&lt;span style=&quot;line-height: 107%; font-family: Calibri, sans-serif;&quot; lang=&quot;CS&quot;&gt;&lt;b style=&quot;&quot;&gt;&lt;font style=&quot;font-size: 16px;&quot;&gt;Soukromoprávní uživatel údajů&lt;/font&gt;&lt;/b&gt;&lt;/span&gt;&lt;br&gt;&lt;div&gt;&lt;span style=&quot;font-size:10.0pt;line-height:&lt;br/&gt;107%;font-family:&amp;quot;Calibri&amp;quot;,sans-serif;mso-ascii-theme-font:minor-latin;&lt;br/&gt;mso-fareast-font-family:Calibri;mso-fareast-theme-font:minor-latin;mso-hansi-theme-font:&lt;br/&gt;minor-latin;mso-bidi-theme-font:minor-latin;mso-ansi-language:CS;mso-fareast-language:&lt;br/&gt;EN-US;mso-bidi-language:AR-SA&quot; lang=&quot;CS&quot;&gt;&lt;br&gt;&lt;/span&gt;&lt;/div&gt;&lt;div&gt;&lt;div style=&quot;text-align: left;&quot;&gt;&lt;span style=&quot;font-size:10.0pt;line-height:&lt;br/&gt;107%;font-family:&amp;quot;Calibri&amp;quot;,sans-serif;mso-ascii-theme-font:minor-latin;&lt;br/&gt;mso-fareast-font-family:Calibri;mso-fareast-theme-font:minor-latin;mso-hansi-theme-font:&lt;br/&gt;minor-latin;mso-bidi-theme-font:minor-latin;mso-ansi-language:CS;mso-fareast-language:&lt;br/&gt;EN-US;mso-bidi-language:AR-SA&quot; lang=&quot;CS&quot;&gt;má na základě zákona oprávnění k přístupu k údajům v základních registrech či AISech&lt;/span&gt;&lt;/div&gt;&lt;/div&gt;" style="html=1;outlineConnect=0;whiteSpace=wrap;fillColor=#FFF323;shape=mxgraph.archimate3.application;appType=actor;archiType=square;verticalAlign=top;strokeColor=#000000;" parent="1" vertex="1">
          <mxGeometry x="530" y="840" width="240" height="90" as="geometry" />
        </mxCell>
        <mxCell id="YwlZLNZ5m-19csx6hS7T-28" value="&lt;span style=&quot;line-height: 107%; font-family: Calibri, sans-serif;&quot; lang=&quot;CS&quot;&gt;&lt;font style=&quot;font-size: 16px;&quot;&gt;&lt;b&gt;Správce centralizovaného AIS,&amp;nbsp;&lt;span style=&quot;line-height: 107%;&quot; lang=&quot;CS&quot;&gt;vlastního AIS&lt;/span&gt;&lt;/b&gt;&lt;/font&gt;&lt;span style=&quot;font-size: 10pt;&quot;&gt;&amp;nbsp;&lt;/span&gt;&lt;/span&gt;" style="html=1;outlineConnect=0;whiteSpace=wrap;fillColor=#FFF323;shape=mxgraph.archimate3.application;appType=actor;archiType=square;strokeColor=#000000;" parent="1" vertex="1">
          <mxGeometry x="530" y="950" width="240" height="80" as="geometry" />
        </mxCell>
        <mxCell id="7mM5IiCMMm5JMCmeW6Y_-4" value="Štátna správa&lt;div&gt;Samospráva&lt;/div&gt;" style="html=1;outlineConnect=0;whiteSpace=wrap;fillColor=#FFF323;shape=mxgraph.archimate3.application;appType=actor;archiType=square;strokeColor=#000000;" parent="1" vertex="1">
          <mxGeometry x="880" y="720" width="150" height="80" as="geometry" />
        </mxCell>
        <mxCell id="7mM5IiCMMm5JMCmeW6Y_-6" value="Legislatíva" style="html=1;outlineConnect=0;whiteSpace=wrap;fillColor=#FFF323;shape=mxgraph.archimate3.application;appType=passive;archiType=square;strokeColor=#000000;" parent="1" vertex="1">
          <mxGeometry x="880" y="850" width="150" height="80" as="geometry" />
        </mxCell>
        <mxCell id="7mM5IiCMMm5JMCmeW6Y_-7" value="" style="html=1;outlineConnect=0;whiteSpace=wrap;shape=mxgraph.archimate3.application;appType=grouping;archiType=square;dashed=1;fillColor=none;" parent="1" vertex="1">
          <mxGeometry x="1120" y="700" width="190" height="240" as="geometry" />
        </mxCell>
        <mxCell id="7mM5IiCMMm5JMCmeW6Y_-8" value="&lt;span style=&quot;font-weight: normal;&quot;&gt;&lt;font&gt;Agenda&lt;/font&gt;&lt;/span&gt;" style="html=1;outlineConnect=0;whiteSpace=wrap;fillColor=#FFF323;shape=mxgraph.archimate3.application;appType=passive;archiType=square;verticalAlign=middle;strokeColor=#000000;align=center;fontFamily=Helvetica;fontSize=12;fontColor=default;fontStyle=1" parent="1" vertex="1">
          <mxGeometry x="1140" y="720" width="150" height="60" as="geometry" />
        </mxCell>
        <mxCell id="7mM5IiCMMm5JMCmeW6Y_-9" value="Vykonáva" style="endArrow=block;html=1;endFill=1;startArrow=oval;startFill=1;edgeStyle=elbowEdgeStyle;elbow=vertical;rounded=0;exitX=1;exitY=0.5;exitDx=0;exitDy=0;exitPerimeter=0;" parent="1" source="7mM5IiCMMm5JMCmeW6Y_-4" target="7mM5IiCMMm5JMCmeW6Y_-7" edge="1">
          <mxGeometry width="160" relative="1" as="geometry">
            <mxPoint x="725" y="1030" as="sourcePoint" />
            <mxPoint x="885" y="1030" as="targetPoint" />
          </mxGeometry>
        </mxCell>
        <mxCell id="7mM5IiCMMm5JMCmeW6Y_-10" value="na základe" style="edgeStyle=elbowEdgeStyle;html=1;endArrow=none;elbow=vertical;rounded=0;" parent="1" source="7mM5IiCMMm5JMCmeW6Y_-6" target="7mM5IiCMMm5JMCmeW6Y_-7" edge="1">
          <mxGeometry width="160" relative="1" as="geometry">
            <mxPoint x="725" y="1030" as="sourcePoint" />
            <mxPoint x="885" y="1030" as="targetPoint" />
          </mxGeometry>
        </mxCell>
        <mxCell id="7mM5IiCMMm5JMCmeW6Y_-11" value="Činnosti a role" style="html=1;outlineConnect=0;whiteSpace=wrap;fillColor=#FFF323;shape=mxgraph.archimate3.application;appType=func;archiType=rounded;strokeColor=#000000;" parent="1" vertex="1">
          <mxGeometry x="1140" y="790" width="150" height="60" as="geometry" />
        </mxCell>
        <mxCell id="7mM5IiCMMm5JMCmeW6Y_-12" value="Služby" style="html=1;outlineConnect=0;whiteSpace=wrap;fillColor=#FFF323;shape=mxgraph.archimate3.application;appType=serv;archiType=rounded;strokeColor=#000000;" parent="1" vertex="1">
          <mxGeometry x="1140" y="860" width="150" height="60" as="geometry" />
        </mxCell>
        <mxCell id="7mM5IiCMMm5JMCmeW6Y_-13" value="Registr práv a povinností sám o sobě představuje ekosystém, který je tvořen základním registrem a dalšími čtyřmi agendovými informačními systémy, z nichž klíčový je AIS RPP Působnostní, který slouží pro registraci a ohlašování agend v celém prostoru veřejné správy. " style="shape=note;size=20;align=left;whiteSpace=wrap;spacing=5;" parent="1" vertex="1">
          <mxGeometry x="1120" y="1190" width="250" height="140" as="geometry" />
        </mxCell>
        <mxCell id="7mM5IiCMMm5JMCmeW6Y_-14" value="RPP" style="outlineConnect=0;whiteSpace=wrap;fillColor=#66CCFF;shape=mxgraph.archimate3.application;appType=comp;archiType=square;verticalAlign=top;strokeColor=#000000;align=center;html=1;fontStyle=1;fontSize=16;container=0;" parent="1" vertex="1">
          <mxGeometry x="60" y="1190" width="1020" height="50" as="geometry">
            <mxRectangle x="40" y="1030" width="70" height="30" as="alternateBounds" />
          </mxGeometry>
        </mxCell>
        <mxCell id="7mM5IiCMMm5JMCmeW6Y_-20" value="&lt;span lang=&quot;CS&quot; style=&quot;font-size:12.0pt;font-family:&lt;br/&gt;&amp;quot;Aptos&amp;quot;,sans-serif;mso-ascii-theme-font:minor-latin;mso-fareast-font-family:&lt;br/&gt;Aptos;mso-fareast-theme-font:minor-latin;mso-hansi-theme-font:minor-latin;&lt;br/&gt;mso-bidi-font-family:&amp;quot;Times New Roman&amp;quot;;mso-bidi-theme-font:minor-bidi;&lt;br/&gt;mso-ansi-language:CS;mso-fareast-language:EN-US;mso-bidi-language:AR-SA&quot;&gt;Matice oprávnění&amp;nbsp;&lt;/span&gt;&lt;div&gt;&lt;span lang=&quot;CS&quot; style=&quot;font-size:12.0pt;font-family:&lt;br/&gt;&amp;quot;Aptos&amp;quot;,sans-serif;mso-ascii-theme-font:minor-latin;mso-fareast-font-family:&lt;br/&gt;Aptos;mso-fareast-theme-font:minor-latin;mso-hansi-theme-font:minor-latin;&lt;br/&gt;mso-bidi-font-family:&amp;quot;Times New Roman&amp;quot;;mso-bidi-theme-font:minor-bidi;&lt;br/&gt;mso-ansi-language:CS;mso-fareast-language:EN-US;mso-bidi-language:AR-SA&quot;&gt;pro přístup k&amp;nbsp;datům&lt;/span&gt;&lt;/div&gt;" style="html=1;outlineConnect=0;whiteSpace=wrap;fillColor=#66CCFF;shape=mxgraph.archimate3.application;appType=passive;archiType=square;container=1;verticalAlign=top;strokeColor=#000000;fontStyle=1" parent="1" vertex="1">
          <mxGeometry x="60" y="1470" width="240" height="180" as="geometry" />
        </mxCell>
        <mxCell id="7mM5IiCMMm5JMCmeW6Y_-21" value="&lt;span style=&quot;font-size: 16px;&quot;&gt;propojuje&amp;nbsp;&lt;/span&gt;&lt;div&gt;&lt;span style=&quot;font-size: 16px;&quot;&gt;* Agendy/činnosti&lt;/span&gt;&lt;/div&gt;&lt;div&gt;&lt;span style=&quot;font-size: 16px;&quot;&gt;* Údaje&amp;nbsp;&lt;/span&gt;&lt;/div&gt;&lt;div&gt;&lt;span style=&quot;font-size: 16px;&quot;&gt;* OVM / SPUU&lt;/span&gt;&lt;/div&gt;&lt;div&gt;&lt;span style=&quot;font-size: 16px;&quot;&gt;* IS VS, SSVÚ&lt;/span&gt;&lt;/div&gt;" style="text;strokeColor=none;align=left;fillColor=none;html=1;verticalAlign=top;whiteSpace=wrap;rounded=0;" parent="7mM5IiCMMm5JMCmeW6Y_-20" vertex="1">
          <mxGeometry y="50" width="240" height="100" as="geometry" />
        </mxCell>
        <mxCell id="7mM5IiCMMm5JMCmeW6Y_-25" value="ASI Editační" style="outlineConnect=0;whiteSpace=wrap;fillColor=#66CCFF;shape=mxgraph.archimate3.application;appType=comp;archiType=square;verticalAlign=top;strokeColor=#000000;align=center;html=1;fontStyle=1;fontSize=16;container=1;" parent="1" vertex="1">
          <mxGeometry x="580" y="1260" width="240" height="170" as="geometry">
            <mxRectangle x="40" y="1030" width="70" height="30" as="alternateBounds" />
          </mxGeometry>
        </mxCell>
        <mxCell id="7mM5IiCMMm5JMCmeW6Y_-26" value="&lt;span style=&quot;&quot;&gt;xx&lt;/span&gt;" style="text;strokeColor=none;align=left;fillColor=none;html=1;verticalAlign=top;whiteSpace=wrap;rounded=0;" parent="7mM5IiCMMm5JMCmeW6Y_-25" vertex="1">
          <mxGeometry y="40" width="240" height="100" as="geometry" />
        </mxCell>
        <mxCell id="7mM5IiCMMm5JMCmeW6Y_-27" value="AIS Speciální" style="outlineConnect=0;whiteSpace=wrap;fillColor=#66CCFF;shape=mxgraph.archimate3.application;appType=comp;archiType=square;verticalAlign=top;strokeColor=#000000;align=center;html=1;fontStyle=1;fontSize=16;container=1;" parent="1" vertex="1">
          <mxGeometry x="840" y="1260" width="240" height="170" as="geometry">
            <mxRectangle x="40" y="1030" width="70" height="30" as="alternateBounds" />
          </mxGeometry>
        </mxCell>
        <mxCell id="7mM5IiCMMm5JMCmeW6Y_-28" value="&lt;span style=&quot;&quot;&gt;xx&lt;/span&gt;" style="text;strokeColor=none;align=left;fillColor=none;html=1;verticalAlign=top;whiteSpace=wrap;rounded=0;" parent="7mM5IiCMMm5JMCmeW6Y_-27" vertex="1">
          <mxGeometry y="40" width="240" height="100" as="geometry" />
        </mxCell>
        <mxCell id="7mM5IiCMMm5JMCmeW6Y_-44" value="&lt;span style=&quot;font-size: 16px;&quot;&gt;ROVM - Register OVM&lt;/span&gt;&lt;div&gt;&lt;span style=&quot;font-size: 16px;&quot;&gt;Katalog OVM / SPUU&lt;/span&gt;&lt;/div&gt;" style="html=1;outlineConnect=0;whiteSpace=wrap;fillColor=#66CCFF;shape=mxgraph.archimate3.application;appType=passive;archiType=square;container=0;verticalAlign=middle;strokeColor=#000000;fontStyle=1" parent="1" vertex="1">
          <mxGeometry x="320" y="1560" width="240" height="80" as="geometry" />
        </mxCell>
        <mxCell id="7mM5IiCMMm5JMCmeW6Y_-46" value="&lt;div&gt;&lt;span style=&quot;font-size: 16px;&quot;&gt;Katalog ISVS / SSVÚ&lt;/span&gt;&lt;/div&gt;&lt;div&gt;&lt;span style=&quot;font-weight: 400; text-align: left;&quot;&gt;soukromoprávních systémů pro využívání údajů&lt;/span&gt;&lt;span style=&quot;font-size: 16px;&quot;&gt;&lt;/span&gt;&lt;/div&gt;" style="html=1;outlineConnect=0;whiteSpace=wrap;fillColor=#66CCFF;shape=mxgraph.archimate3.application;appType=passive;archiType=square;container=0;verticalAlign=middle;strokeColor=#000000;fontStyle=1" parent="1" vertex="1">
          <mxGeometry x="320" y="1650" width="240" height="80" as="geometry" />
        </mxCell>
        <mxCell id="7mM5IiCMMm5JMCmeW6Y_-57" value="&lt;div&gt;&lt;span style=&quot;font-size: 16px;&quot;&gt;Katalog Agiend VS&lt;/span&gt;&lt;/div&gt;" style="html=1;outlineConnect=0;whiteSpace=wrap;fillColor=#66CCFF;shape=mxgraph.archimate3.application;appType=passive;archiType=square;container=0;verticalAlign=middle;strokeColor=#000000;fontStyle=1" parent="1" vertex="1">
          <mxGeometry x="320" y="1470" width="240" height="80" as="geometry" />
        </mxCell>
        <mxCell id="7mM5IiCMMm5JMCmeW6Y_-58" value="Správa architektonických modelov" style="html=1;outlineConnect=0;whiteSpace=wrap;fillColor=#66CCFF;shape=mxgraph.archimate3.application;appType=func;archiType=rounded;strokeColor=#000000;" parent="1" vertex="1">
          <mxGeometry x="580" y="1770" width="240" height="80" as="geometry" />
        </mxCell>
        <mxCell id="7mM5IiCMMm5JMCmeW6Y_-59" value="Správa katalógov" style="html=1;outlineConnect=0;whiteSpace=wrap;fillColor=#66CCFF;shape=mxgraph.archimate3.application;appType=func;archiType=rounded;strokeColor=#000000;" parent="1" vertex="1">
          <mxGeometry x="580" y="1870" width="240" height="80" as="geometry" />
        </mxCell>
        <mxCell id="7mM5IiCMMm5JMCmeW6Y_-60" value="AIS RPP Správa katalógov" style="html=1;outlineConnect=0;whiteSpace=wrap;fillColor=#99ffff;shape=mxgraph.archimate3.application;appType=comp;archiType=square;" parent="1" vertex="1">
          <mxGeometry x="390" y="1870" width="150" height="80" as="geometry" />
        </mxCell>
        <mxCell id="7mM5IiCMMm5JMCmeW6Y_-61" value="&lt;div&gt;&lt;span style=&quot;font-size: 16px;&quot;&gt;Evidencia zdieľaných prvkov&lt;/span&gt;&lt;/div&gt;" style="html=1;outlineConnect=0;whiteSpace=wrap;fillColor=#66CCFF;shape=mxgraph.archimate3.application;appType=passive;archiType=square;container=0;verticalAlign=middle;strokeColor=#000000;fontStyle=1" parent="1" vertex="1">
          <mxGeometry x="580" y="1670" width="240" height="80" as="geometry" />
        </mxCell>
        <mxCell id="7mM5IiCMMm5JMCmeW6Y_-65" value="" style="edgeStyle=orthogonalEdgeStyle;rounded=0;orthogonalLoop=1;jettySize=auto;html=1;strokeColor=default;align=center;verticalAlign=middle;fontFamily=Helvetica;fontSize=11;fontColor=default;labelBackgroundColor=default;elbow=vertical;endArrow=block;endFill=0;" parent="1" source="7mM5IiCMMm5JMCmeW6Y_-64" target="7mM5IiCMMm5JMCmeW6Y_-63" edge="1">
          <mxGeometry relative="1" as="geometry" />
        </mxCell>
        <mxCell id="7mM5IiCMMm5JMCmeW6Y_-67" value="" style="edgeStyle=orthogonalEdgeStyle;rounded=0;orthogonalLoop=1;jettySize=auto;html=1;strokeColor=default;align=center;verticalAlign=middle;fontFamily=Helvetica;fontSize=11;fontColor=default;labelBackgroundColor=default;elbow=vertical;endArrow=block;endFill=0;" parent="1" source="7mM5IiCMMm5JMCmeW6Y_-66" target="7mM5IiCMMm5JMCmeW6Y_-63" edge="1">
          <mxGeometry relative="1" as="geometry" />
        </mxCell>
        <mxCell id="7mM5IiCMMm5JMCmeW6Y_-63" value="Datové prvky" style="html=1;outlineConnect=0;whiteSpace=wrap;fillColor=#66CCFF;shape=mxgraph.archimate3.application;appType=passive;archiType=square;container=0;verticalAlign=middle;strokeColor=#000000;fontStyle=1" parent="1" vertex="1">
          <mxGeometry x="1240" y="1440" width="240" height="80" as="geometry" />
        </mxCell>
        <mxCell id="7mM5IiCMMm5JMCmeW6Y_-64" value="Subjekt" style="html=1;outlineConnect=0;whiteSpace=wrap;fillColor=#66CCFF;shape=mxgraph.archimate3.application;appType=passive;archiType=square;container=0;verticalAlign=middle;strokeColor=#000000;fontStyle=1" parent="1" vertex="1">
          <mxGeometry x="1190" y="1560" width="150" height="80" as="geometry" />
        </mxCell>
        <mxCell id="7mM5IiCMMm5JMCmeW6Y_-66" value="Objekt" style="html=1;outlineConnect=0;whiteSpace=wrap;fillColor=#66CCFF;shape=mxgraph.archimate3.application;appType=passive;archiType=square;container=0;verticalAlign=middle;strokeColor=#000000;fontStyle=1" parent="1" vertex="1">
          <mxGeometry x="1380" y="1560" width="150" height="80" as="geometry" />
        </mxCell>
        <mxCell id="C69U2lbv4l3f2DQYKBzZ-1" value="Správa číselníkov" style="html=1;outlineConnect=0;whiteSpace=wrap;fillColor=#66CCFF;shape=mxgraph.archimate3.application;appType=func;archiType=rounded;strokeColor=#000000;" vertex="1" parent="1">
          <mxGeometry x="840" y="1470" width="240" height="80" as="geometry" />
        </mxCell>
      </root>
    </mxGraphModel>
  </diagram>
</mxfile>
